<svg width="1200" height="760" viewBox="0 0 1200 760" fill="none" xmlns="http://www.w3.org/2000/svg">
  <rect width="1200" height="760" rx="36" fill="#F6F1FA"/>
  <rect x="60" y="50" width="1080" height="660" rx="28" fill="#FFFFFF" stroke="#DCD0FF" stroke-width="3"/>
  <text x="102" y="104" fill="#2E2A5A" font-family="Arial, Helvetica, sans-serif" font-size="34" font-weight="800">Member Operations</text>
  <rect x="102" y="136" width="936" height="52" rx="18" fill="#F7F2F7"/>
  <text x="128" y="168" fill="#9B93C4" font-family="Arial, Helvetica, sans-serif" font-size="18">Search by name, email, phone number, or membership ID</text>
  <rect x="102" y="218" width="456" height="396" rx="24" fill="#FFFFFF" stroke="#DCD0FF" stroke-width="3"/>
  <text x="132" y="260" fill="#2E2A5A" font-family="Arial, Helvetica, sans-serif" font-size="24" font-weight="800">Member List</text>
  <rect x="132" y="286" width="396" height="72" rx="18" fill="#F7F2F7"/>
  <rect x="132" y="374" width="396" height="72" rx="18" fill="#F7F2F7"/>
  <rect x="132" y="462" width="396" height="72" rx="18" fill="#F7F2F7"/>
  <text x="154" y="316" fill="#2E2A5A" font-family="Arial, Helvetica, sans-serif" font-size="17" font-weight="700">Gade Sudheer</text>
  <text x="154" y="338" fill="#5A5280" font-family="Arial, Helvetica, sans-serif" font-size="14">No email  +918522097197  No membership ID</text>
  <text x="154" y="404" fill="#2E2A5A" font-family="Arial, Helvetica, sans-serif" font-size="17" font-weight="700">Ch. Prasad</text>
  <text x="154" y="426" fill="#5A5280" font-family="Arial, Helvetica, sans-serif" font-size="14">No email  +919642414436  Pending verification</text>
  <text x="154" y="492" fill="#2E2A5A" font-family="Arial, Helvetica, sans-serif" font-size="17" font-weight="700">Polukanti Pradeep</text>
  <text x="154" y="514" fill="#5A5280" font-family="Arial, Helvetica, sans-serif" font-size="14">No email  +919967676321  Rs 0  Pending</text>
  <rect x="582" y="218" width="456" height="396" rx="24" fill="#FFFFFF" stroke="#DCD0FF" stroke-width="3"/>
  <text x="612" y="260" fill="#2E2A5A" font-family="Arial, Helvetica, sans-serif" font-size="24" font-weight="800">Edit Member</text>
  <rect x="612" y="286" width="396" height="44" rx="14" fill="#F7F2F7"/>
  <rect x="612" y="346" width="396" height="44" rx="14" fill="#F7F2F7"/>
  <rect x="612" y="406" width="396" height="44" rx="14" fill="#F7F2F7"/>
  <rect x="612" y="466" width="396" height="44" rx="14" fill="#F7F2F7"/>
  <rect x="612" y="538" width="166" height="48" rx="18" fill="#2E2A5A"/>
  <rect x="796" y="538" width="166" height="48" rx="18" fill="#EDE8FF"/>
  <text x="695" y="568" text-anchor="middle" fill="#FFFFFF" font-family="Arial, Helvetica, sans-serif" font-size="18" font-weight="700">Update</text>
  <text x="879" y="568" text-anchor="middle" fill="#2E2A5A" font-family="Arial, Helvetica, sans-serif" font-size="18" font-weight="700">Delete</text>
  <text x="600" y="722" text-anchor="middle" fill="#2E2A5A" font-family="Arial, Helvetica, sans-serif" font-size="24" font-weight="700">Reference Screen: Search, Edit, and Review Member Records</text>
</svg>