<svg width="1200" height="760" viewBox="0 0 1200 760" fill="none" xmlns="http://www.w3.org/2000/svg">
  <rect width="1200" height="760" rx="36" fill="#F6F1FA"/>
  <rect x="54" y="50" width="1092" height="660" rx="28" fill="#FFFFFF" stroke="#DCD0FF" stroke-width="3"/>
  <text x="96" y="102" fill="#2E2A5A" font-family="Arial, Helvetica, sans-serif" font-size="34" font-weight="800">Payments, Donations, and Receipt History</text>
  <rect x="96" y="136" width="300" height="130" rx="24" fill="#2E2A5A"/>
  <rect x="420" y="136" width="300" height="130" rx="24" fill="#3D3880"/>
  <rect x="744" y="136" width="300" height="130" rx="24" fill="#5A5280"/>
  <text x="124" y="184" fill="#DCD0FF" font-family="Arial, Helvetica, sans-serif" font-size="16">Total Contributed</text>
  <text x="124" y="230" fill="#FFFFFF" font-family="Arial, Helvetica, sans-serif" font-size="38" font-weight="800">Rs 18,450</text>
  <text x="448" y="184" fill="#DCD0FF" font-family="Arial, Helvetica, sans-serif" font-size="16">Pending Transactions</text>
  <text x="448" y="230" fill="#FFFFFF" font-family="Arial, Helvetica, sans-serif" font-size="38" font-weight="800">2</text>
  <text x="772" y="184" fill="#DCD0FF" font-family="Arial, Helvetica, sans-serif" font-size="16">Active Subscriptions</text>
  <text x="772" y="230" fill="#FFFFFF" font-family="Arial, Helvetica, sans-serif" font-size="38" font-weight="800">3</text>
  <rect x="96" y="294" width="948" height="52" rx="18" fill="#F7F2F7"/>
  <text x="124" y="327" fill="#9B93C4" font-family="Arial, Helvetica, sans-serif" font-size="18">Search receipt number, transaction ID, payment method, or amount</text>
  <rect x="96" y="374" width="948" height="258" rx="20" fill="#FFFFFF" stroke="#DCD0FF" stroke-width="3"/>
  <rect x="96" y="374" width="948" height="50" rx="20" fill="#EDE8FF"/>
  <g fill="#2E2A5A" font-family="Arial, Helvetica, sans-serif" font-size="16" font-weight="700">
    <text x="122" y="406">Date</text>
    <text x="250" y="406">Description</text>
    <text x="650" y="406">Amount</text>
    <text x="790" y="406">Status</text>
    <text x="930" y="406">Receipt</text>
  </g>
  <g fill="#5A5280" font-family="Arial, Helvetica, sans-serif" font-size="15">
    <text x="122" y="456">12 Apr 2026</text>
    <text x="250" y="456">Monthly Offering - Daniel</text>
    <text x="650" y="456">Rs 800</text>
    <text x="790" y="456">Success</text>
    <text x="930" y="456">Download</text>
    <text x="122" y="510">09 Apr 2026</text>
    <text x="250" y="510">General Offering Donation</text>
    <text x="650" y="510">Rs 1,500</text>
    <text x="790" y="510">Success</text>
    <text x="930" y="510">Download</text>
    <text x="122" y="564">02 Apr 2026</text>
    <text x="250" y="564">Building Fund Contribution</text>
    <text x="650" y="564">Rs 2,000</text>
    <text x="790" y="564">Pending</text>
    <text x="930" y="564">Open</text>
  </g>
  <text x="600" y="708" text-anchor="middle" fill="#2E2A5A" font-family="Arial, Helvetica, sans-serif" font-size="24" font-weight="700">Reference Screen: Payment History and Donation Tracking</text>
</svg>